<svg xmlns="http://www.w3.org/2000/svg"  viewBox="0 0 48 48" width="48px" height="48px" baseProfile="basic"><path d="M44,24H4c0,0.338,0,1.662,0,2c0,11.028,8.972,20,20,20s20-8.972,20-20C44,25.662,44,24.338,44,24z"/><circle cx="24" cy="24" r="19" fill="#fff"/><circle cx="24" cy="24" r="19" fill="#fff"/><path d="M24,44C12.972,44,4,35.028,4,24S12.972,4,24,4s20,8.972,20,20S35.028,44,24,44z M24,6C14.075,6,6,14.075,6,24	s8.075,18,18,18s18-8.075,18-18S33.925,6,24,6z"/><path d="M30.899,32.152c0.368-1.129,2.091-12.377,2.304-14.594c0.064-0.671-0.148-1.117-0.563-1.317	c-0.503-0.242-1.247-0.121-2.11,0.19c-1.184,0.427-16.325,6.856-17.2,7.228c-0.83,0.352-1.614,0.737-1.614,1.293	c0,0.391,0.232,0.611,0.872,0.84c0.666,0.237,2.343,0.746,3.334,1.019c0.954,0.263,2.04,0.035,2.649-0.343	c0.645-0.401,8.091-5.383,8.626-5.82c0.534-0.437,0.96,0.123,0.523,0.56c-0.437,0.437-5.548,5.397-6.222,6.084	c-0.818,0.834-0.237,1.698,0.311,2.044c0.627,0.395,5.136,3.419,5.815,3.904c0.679,0.485,1.368,0.705,1.998,0.705	S30.585,33.117,30.899,32.152z"/></svg>
