<?xml version="1.0" standalone="no"?><!DOCTYPE svg PUBLIC "-//W3C//DTD SVG 1.1//EN" "http://www.w3.org/Graphics/SVG/1.1/DTD/svg11.dtd"><svg t="1752840529587" class="icon" viewBox="0 0 1024 1024" version="1.1" xmlns="http://www.w3.org/2000/svg" p-id="22946" xmlns:xlink="http://www.w3.org/1999/xlink" width="200" height="200"><path d="M550.613333 891.52H184.96A78.506667 78.506667 0 0 1 106.666667 813.226667V448a78.293333 78.293333 0 0 1 78.293333-78.293333h250.88v42.666666H184.96A35.626667 35.626667 0 0 0 149.333333 448v365.226667a35.626667 35.626667 0 0 0 35.626667 35.626666h365.653333a35.626667 35.626667 0 0 0 35.626667-35.626666v-182.826667h42.666667v182.826667a78.293333 78.293333 0 0 1-78.293334 78.293333z" fill="#2FDDDC" p-id="22947"></path><path d="M859.733333 651.733333H494.08a78.506667 78.506667 0 0 1-78.293333-78.293333V207.786667a78.506667 78.506667 0 0 1 78.293333-78.506667H859.733333A78.293333 78.293333 0 0 1 938.666667 207.786667v365.653333a78.293333 78.293333 0 0 1-78.933334 78.293333zM494.08 171.946667a35.84 35.84 0 0 0-35.626667 35.84v365.653333a35.626667 35.626667 0 0 0 35.626667 35.626667H859.733333a35.626667 35.626667 0 0 0 36.266667-35.626667V207.786667a35.84 35.84 0 0 0-36.266667-35.84z" fill="#5879FB" p-id="22948"></path></svg>