<?xml version="1.0" standalone="no"?><!DOCTYPE svg PUBLIC "-//W3C//DTD SVG 1.1//EN" "http://www.w3.org/Graphics/SVG/1.1/DTD/svg11.dtd"><svg t="1752840662737" class="icon" viewBox="0 0 1024 1024" version="1.1" xmlns="http://www.w3.org/2000/svg" p-id="27102" xmlns:xlink="http://www.w3.org/1999/xlink" width="200" height="200"><path d="M481.882353 70.27451c72.282353 0 130.509804 58.227451 130.509804 130.509804h200.784314c22.086275 0 40.156863 18.070588 40.156862 40.156862v200.784314c72.282353 0 130.509804 58.227451 130.509804 130.509804s-58.227451 130.509804-130.509804 130.509804v210.823529c0 22.086275-18.070588 40.156863-40.156862 40.156863H542.117647v-70.27451c0-33.129412-27.105882-60.235294-60.235294-60.235294s-60.235294 27.105882-60.235294 60.235294v70.27451H140.54902c-22.086275 0-40.156863-18.070588-40.156863-40.156863V632.470588h70.27451V512h-70.27451V240.941176c0-22.086275 18.070588-40.156863 40.156863-40.156862h210.823529c0-72.282353 58.227451-130.509804 130.509804-130.509804z m301.176471 200.784314H542.117647v-70.27451c0-33.129412-27.105882-60.235294-60.235294-60.235294s-60.235294 27.105882-60.235294 60.235294v70.27451H170.666667v170.666666c72.282353 0 130.509804 58.227451 130.509804 130.509804s-58.227451 130.509804-130.509804 130.509804v180.705882h180.705882c0-72.282353 58.227451-130.509804 130.509804-130.509804s130.509804 58.227451 130.509804 130.509804h170.666667V632.470588h70.274509c33.129412 0 60.235294-27.105882 60.235294-60.235294s-27.105882-60.235294-60.235294-60.235294h-70.274509V271.058824zM170.666667 512v120.470588h2.007843c32.12549-1.003922 58.227451-28.109804 58.227451-60.235294 0-33.129412-27.105882-60.235294-60.235294-60.235294z" p-id="27103" fill="#1296db"></path></svg>