<?xml version="1.0" standalone="no"?><!DOCTYPE svg PUBLIC "-//W3C//DTD SVG 1.1//EN" "http://www.w3.org/Graphics/SVG/1.1/DTD/svg11.dtd"><svg t="1752840417605" class="icon" viewBox="0 0 1024 1024" version="1.1" xmlns="http://www.w3.org/2000/svg" p-id="13137" xmlns:xlink="http://www.w3.org/1999/xlink" width="200" height="200"><path d="M676.346711 0H233.523329C144.713023 0 72.840897 72.383853 72.840897 161.577955v700.836382c0 89.296447 71.974471 161.577955 160.682432 161.577955h552.102788c88.810306 0 160.682432-72.383853 160.682431-161.577955V271.573778c0-36.358238-14.32837-71.232466-39.914744-97.074704l-133.612047-134.354052A135.940407 135.940407 0 0 0 676.321125 0z" fill="#8B72F7" p-id="13138"></path><path d="M905.933249 174.499074l-133.637633-134.354052a136.452135 136.452135 0 0 0-70.157839-37.611971v150.806091a86.3796 86.3796 0 0 0 86.226082 86.686637h153.953215A137.705867 137.705867 0 0 0 905.933249 174.499074z m-478.61872 152.750655h164.673906c19.54799 0 37.61197 10.541586 47.411552 27.582112l82.336953 143.386042a55.445673 55.445673 0 0 1 0 55.113051l-82.336953 143.411628a54.729255 54.729255 0 0 1-47.411552 27.556526h-164.673906a54.729255 54.729255 0 0 1-47.411552-27.556526l-82.336953-143.411628a55.445673 55.445673 0 0 1 0-55.113051L379.877391 354.831841a54.729255 54.729255 0 0 1 47.411552-27.556525z m83.923308 283.241165c-47.744175 0.946696-86.635464-38.174871-85.842286-86.302841a84.870004 84.870004 0 0 1 82.669576-83.155717c47.769761-0.895523 86.66105 38.200457 85.867872 86.354014-0.921109 45.287883-37.637557 82.209021-82.669575 83.130131z" fill="#7463EA" p-id="13139"></path><path d="M427.314529 313.535432h164.673906c19.54799 0 37.61197 10.541586 47.411552 27.582112l82.336953 143.386042a55.445673 55.445673 0 0 1 0 55.113051l-82.336953 143.386042a54.729255 54.729255 0 0 1-47.411552 27.556526h-164.673906a54.729255 54.729255 0 0 1-47.411552-27.556526L297.566024 539.616637a55.445673 55.445673 0 0 1 0-55.113051L379.877391 341.117544a54.729255 54.729255 0 0 1 47.411552-27.582112z m-1.918978 196.912738c-0.793178 48.153557 38.098112 87.249537 85.867873 86.354014 45.032019-0.921109 81.748466-37.867834 82.643989-83.155717 0.818764-48.12797-38.072525-87.249537-85.842286-86.328427a84.870004 84.870004 0 0 0-82.669576 83.155717z" fill="#FFFFFF" p-id="13140"></path></svg>